<mxfile host="app.diagrams.net" modified="2023-03-24T16:02:04.247Z" agent="Mozilla/5.0 (Windows NT 10.0; Win64; x64) AppleWebKit/537.36 (KHTML, like Gecko) Chrome/108.0.0.0 YaBrowser/23.1.5.708 Yowser/2.5 Safari/537.36" etag="wh4sgXZX5nPoRCa31Wnv" version="21.1.0" type="device">
  <diagram id="mo-HOqfo_TGO1M3Odws0" name="Страница 1">
    <mxGraphModel dx="4996" dy="2128" grid="1" gridSize="10" guides="1" tooltips="1" connect="1" arrows="1" fold="1" page="1" pageScale="1" pageWidth="827" pageHeight="1169" math="0" shadow="0">
      <root>
        <mxCell id="0" />
        <mxCell id="1" parent="0" />
        <mxCell id="JaZ2fqVpTu222HVkcc59-122" value="Staff" style="shape=table;startSize=30;container=1;collapsible=0;childLayout=tableLayout;fixedRows=1;rowLines=0;fontStyle=0;strokeColor=default;fontSize=16;" vertex="1" parent="1">
          <mxGeometry x="-650" y="-270" width="580" height="300" as="geometry" />
        </mxCell>
        <mxCell id="JaZ2fqVpTu222HVkcc59-123" value="" style="shape=tableRow;horizontal=0;startSize=0;swimlaneHead=0;swimlaneBody=0;top=0;left=0;bottom=0;right=0;collapsible=0;dropTarget=0;fillColor=none;points=[[0,0.5],[1,0.5]];portConstraint=eastwest;strokeColor=inherit;fontSize=16;" vertex="1" parent="JaZ2fqVpTu222HVkcc59-122">
          <mxGeometry y="30" width="580" height="30" as="geometry" />
        </mxCell>
        <mxCell id="JaZ2fqVpTu222HVkcc59-124" value="1" style="shape=partialRectangle;html=1;whiteSpace=wrap;connectable=0;fillColor=none;top=0;left=0;bottom=0;right=0;overflow=hidden;pointerEvents=1;strokeColor=inherit;fontSize=16;" vertex="1" parent="JaZ2fqVpTu222HVkcc59-123">
          <mxGeometry width="129" height="30" as="geometry">
            <mxRectangle width="129" height="30" as="alternateBounds" />
          </mxGeometry>
        </mxCell>
        <mxCell id="JaZ2fqVpTu222HVkcc59-125" value="EmployeeID (Pk): int identity(1, 1) not null" style="shape=partialRectangle;html=1;whiteSpace=wrap;connectable=0;fillColor=none;top=0;left=0;bottom=0;right=0;align=left;spacingLeft=6;overflow=hidden;strokeColor=inherit;fontSize=16;" vertex="1" parent="JaZ2fqVpTu222HVkcc59-123">
          <mxGeometry x="129" width="451" height="30" as="geometry">
            <mxRectangle width="451" height="30" as="alternateBounds" />
          </mxGeometry>
        </mxCell>
        <mxCell id="JaZ2fqVpTu222HVkcc59-126" value="" style="shape=tableRow;horizontal=0;startSize=0;swimlaneHead=0;swimlaneBody=0;top=0;left=0;bottom=0;right=0;collapsible=0;dropTarget=0;fillColor=none;points=[[0,0.5],[1,0.5]];portConstraint=eastwest;strokeColor=inherit;fontSize=16;" vertex="1" parent="JaZ2fqVpTu222HVkcc59-122">
          <mxGeometry y="60" width="580" height="30" as="geometry" />
        </mxCell>
        <mxCell id="JaZ2fqVpTu222HVkcc59-127" value="2" style="shape=partialRectangle;html=1;whiteSpace=wrap;connectable=0;fillColor=none;top=0;left=0;bottom=0;right=0;overflow=hidden;strokeColor=inherit;fontSize=16;" vertex="1" parent="JaZ2fqVpTu222HVkcc59-126">
          <mxGeometry width="129" height="30" as="geometry">
            <mxRectangle width="129" height="30" as="alternateBounds" />
          </mxGeometry>
        </mxCell>
        <mxCell id="JaZ2fqVpTu222HVkcc59-128" value="Surname: varchar(24) not null" style="shape=partialRectangle;html=1;whiteSpace=wrap;connectable=0;fillColor=none;top=0;left=0;bottom=0;right=0;align=left;spacingLeft=6;overflow=hidden;strokeColor=inherit;fontSize=16;" vertex="1" parent="JaZ2fqVpTu222HVkcc59-126">
          <mxGeometry x="129" width="451" height="30" as="geometry">
            <mxRectangle width="451" height="30" as="alternateBounds" />
          </mxGeometry>
        </mxCell>
        <mxCell id="JaZ2fqVpTu222HVkcc59-129" value="" style="shape=tableRow;horizontal=0;startSize=0;swimlaneHead=0;swimlaneBody=0;top=0;left=0;bottom=0;right=0;collapsible=0;dropTarget=0;fillColor=none;points=[[0,0.5],[1,0.5]];portConstraint=eastwest;strokeColor=inherit;fontSize=16;" vertex="1" parent="JaZ2fqVpTu222HVkcc59-122">
          <mxGeometry y="90" width="580" height="30" as="geometry" />
        </mxCell>
        <mxCell id="JaZ2fqVpTu222HVkcc59-130" value="3" style="shape=partialRectangle;html=1;whiteSpace=wrap;connectable=0;fillColor=none;top=0;left=0;bottom=0;right=0;overflow=hidden;strokeColor=inherit;fontSize=16;" vertex="1" parent="JaZ2fqVpTu222HVkcc59-129">
          <mxGeometry width="129" height="30" as="geometry">
            <mxRectangle width="129" height="30" as="alternateBounds" />
          </mxGeometry>
        </mxCell>
        <mxCell id="JaZ2fqVpTu222HVkcc59-131" value="Name: varchar(24)&amp;nbsp;not null" style="shape=partialRectangle;html=1;whiteSpace=wrap;connectable=0;fillColor=none;top=0;left=0;bottom=0;right=0;align=left;spacingLeft=6;overflow=hidden;strokeColor=inherit;fontSize=16;" vertex="1" parent="JaZ2fqVpTu222HVkcc59-129">
          <mxGeometry x="129" width="451" height="30" as="geometry">
            <mxRectangle width="451" height="30" as="alternateBounds" />
          </mxGeometry>
        </mxCell>
        <mxCell id="JaZ2fqVpTu222HVkcc59-132" value="" style="shape=tableRow;horizontal=0;startSize=0;swimlaneHead=0;swimlaneBody=0;fillColor=none;collapsible=0;dropTarget=0;points=[[0,0.5],[1,0.5]];portConstraint=eastwest;top=0;left=0;right=0;bottom=0;" vertex="1" parent="JaZ2fqVpTu222HVkcc59-122">
          <mxGeometry y="120" width="580" height="30" as="geometry" />
        </mxCell>
        <mxCell id="JaZ2fqVpTu222HVkcc59-133" value="4" style="shape=partialRectangle;connectable=0;fillColor=none;top=0;left=0;bottom=0;right=0;editable=1;overflow=hidden;fontSize=16;" vertex="1" parent="JaZ2fqVpTu222HVkcc59-132">
          <mxGeometry width="129" height="30" as="geometry">
            <mxRectangle width="129" height="30" as="alternateBounds" />
          </mxGeometry>
        </mxCell>
        <mxCell id="JaZ2fqVpTu222HVkcc59-134" value="Patronymic: varchar(24)" style="shape=partialRectangle;connectable=0;fillColor=none;top=0;left=0;bottom=0;right=0;align=left;spacingLeft=6;overflow=hidden;fontSize=16;" vertex="1" parent="JaZ2fqVpTu222HVkcc59-132">
          <mxGeometry x="129" width="451" height="30" as="geometry">
            <mxRectangle width="451" height="30" as="alternateBounds" />
          </mxGeometry>
        </mxCell>
        <mxCell id="JaZ2fqVpTu222HVkcc59-244" value="" style="shape=tableRow;horizontal=0;startSize=0;swimlaneHead=0;swimlaneBody=0;fillColor=none;collapsible=0;dropTarget=0;points=[[0,0.5],[1,0.5]];portConstraint=eastwest;top=0;left=0;right=0;bottom=0;" vertex="1" parent="JaZ2fqVpTu222HVkcc59-122">
          <mxGeometry y="150" width="580" height="30" as="geometry" />
        </mxCell>
        <mxCell id="JaZ2fqVpTu222HVkcc59-245" value="5" style="shape=partialRectangle;connectable=0;fillColor=none;top=0;left=0;bottom=0;right=0;editable=1;overflow=hidden;fontSize=16;" vertex="1" parent="JaZ2fqVpTu222HVkcc59-244">
          <mxGeometry width="129" height="30" as="geometry">
            <mxRectangle width="129" height="30" as="alternateBounds" />
          </mxGeometry>
        </mxCell>
        <mxCell id="JaZ2fqVpTu222HVkcc59-246" value="Login: varchar(24) not null" style="shape=partialRectangle;connectable=0;fillColor=none;top=0;left=0;bottom=0;right=0;align=left;spacingLeft=6;overflow=hidden;fontSize=16;" vertex="1" parent="JaZ2fqVpTu222HVkcc59-244">
          <mxGeometry x="129" width="451" height="30" as="geometry">
            <mxRectangle width="451" height="30" as="alternateBounds" />
          </mxGeometry>
        </mxCell>
        <mxCell id="JaZ2fqVpTu222HVkcc59-135" value="" style="shape=tableRow;horizontal=0;startSize=0;swimlaneHead=0;swimlaneBody=0;fillColor=none;collapsible=0;dropTarget=0;points=[[0,0.5],[1,0.5]];portConstraint=eastwest;top=0;left=0;right=0;bottom=0;" vertex="1" parent="JaZ2fqVpTu222HVkcc59-122">
          <mxGeometry y="180" width="580" height="30" as="geometry" />
        </mxCell>
        <mxCell id="JaZ2fqVpTu222HVkcc59-136" value="6" style="shape=partialRectangle;connectable=0;fillColor=none;top=0;left=0;bottom=0;right=0;editable=1;overflow=hidden;fontSize=16;" vertex="1" parent="JaZ2fqVpTu222HVkcc59-135">
          <mxGeometry width="129" height="30" as="geometry">
            <mxRectangle width="129" height="30" as="alternateBounds" />
          </mxGeometry>
        </mxCell>
        <mxCell id="JaZ2fqVpTu222HVkcc59-137" value="Password: varchar(24) not null" style="shape=partialRectangle;connectable=0;fillColor=none;top=0;left=0;bottom=0;right=0;align=left;spacingLeft=6;overflow=hidden;fontSize=16;" vertex="1" parent="JaZ2fqVpTu222HVkcc59-135">
          <mxGeometry x="129" width="451" height="30" as="geometry">
            <mxRectangle width="451" height="30" as="alternateBounds" />
          </mxGeometry>
        </mxCell>
        <mxCell id="JaZ2fqVpTu222HVkcc59-138" value="" style="shape=tableRow;horizontal=0;startSize=0;swimlaneHead=0;swimlaneBody=0;fillColor=none;collapsible=0;dropTarget=0;points=[[0,0.5],[1,0.5]];portConstraint=eastwest;top=0;left=0;right=0;bottom=0;" vertex="1" parent="JaZ2fqVpTu222HVkcc59-122">
          <mxGeometry y="210" width="580" height="30" as="geometry" />
        </mxCell>
        <mxCell id="JaZ2fqVpTu222HVkcc59-139" value="7" style="shape=partialRectangle;connectable=0;fillColor=none;top=0;left=0;bottom=0;right=0;editable=1;overflow=hidden;fontSize=16;" vertex="1" parent="JaZ2fqVpTu222HVkcc59-138">
          <mxGeometry width="129" height="30" as="geometry">
            <mxRectangle width="129" height="30" as="alternateBounds" />
          </mxGeometry>
        </mxCell>
        <mxCell id="JaZ2fqVpTu222HVkcc59-140" value="PostID (Fk): int not null references Post(PostID)" style="shape=partialRectangle;connectable=0;fillColor=none;top=0;left=0;bottom=0;right=0;align=left;spacingLeft=6;overflow=hidden;fontSize=16;" vertex="1" parent="JaZ2fqVpTu222HVkcc59-138">
          <mxGeometry x="129" width="451" height="30" as="geometry">
            <mxRectangle width="451" height="30" as="alternateBounds" />
          </mxGeometry>
        </mxCell>
        <mxCell id="JaZ2fqVpTu222HVkcc59-141" value="" style="shape=tableRow;horizontal=0;startSize=0;swimlaneHead=0;swimlaneBody=0;fillColor=none;collapsible=0;dropTarget=0;points=[[0,0.5],[1,0.5]];portConstraint=eastwest;top=0;left=0;right=0;bottom=0;" vertex="1" parent="JaZ2fqVpTu222HVkcc59-122">
          <mxGeometry y="240" width="580" height="30" as="geometry" />
        </mxCell>
        <mxCell id="JaZ2fqVpTu222HVkcc59-142" value="8" style="shape=partialRectangle;connectable=0;fillColor=none;top=0;left=0;bottom=0;right=0;editable=1;overflow=hidden;fontSize=16;" vertex="1" parent="JaZ2fqVpTu222HVkcc59-141">
          <mxGeometry width="129" height="30" as="geometry">
            <mxRectangle width="129" height="30" as="alternateBounds" />
          </mxGeometry>
        </mxCell>
        <mxCell id="JaZ2fqVpTu222HVkcc59-143" value="FactoryID (Fk): int not null references Factories(FactoryID)" style="shape=partialRectangle;connectable=0;fillColor=none;top=0;left=0;bottom=0;right=0;align=left;spacingLeft=6;overflow=hidden;fontSize=16;" vertex="1" parent="JaZ2fqVpTu222HVkcc59-141">
          <mxGeometry x="129" width="451" height="30" as="geometry">
            <mxRectangle width="451" height="30" as="alternateBounds" />
          </mxGeometry>
        </mxCell>
        <mxCell id="JaZ2fqVpTu222HVkcc59-144" value="" style="shape=tableRow;horizontal=0;startSize=0;swimlaneHead=0;swimlaneBody=0;fillColor=none;collapsible=0;dropTarget=0;points=[[0,0.5],[1,0.5]];portConstraint=eastwest;top=0;left=0;right=0;bottom=0;" vertex="1" parent="JaZ2fqVpTu222HVkcc59-122">
          <mxGeometry y="270" width="580" height="30" as="geometry" />
        </mxCell>
        <mxCell id="JaZ2fqVpTu222HVkcc59-145" value="9" style="shape=partialRectangle;connectable=0;fillColor=none;top=0;left=0;bottom=0;right=0;editable=1;overflow=hidden;fontSize=16;" vertex="1" parent="JaZ2fqVpTu222HVkcc59-144">
          <mxGeometry width="129" height="30" as="geometry">
            <mxRectangle width="129" height="30" as="alternateBounds" />
          </mxGeometry>
        </mxCell>
        <mxCell id="JaZ2fqVpTu222HVkcc59-146" value="MachineID (Fk): int not null references Machines(MachineID)" style="shape=partialRectangle;connectable=0;fillColor=none;top=0;left=0;bottom=0;right=0;align=left;spacingLeft=6;overflow=hidden;fontSize=16;" vertex="1" parent="JaZ2fqVpTu222HVkcc59-144">
          <mxGeometry x="129" width="451" height="30" as="geometry">
            <mxRectangle width="451" height="30" as="alternateBounds" />
          </mxGeometry>
        </mxCell>
        <mxCell id="JaZ2fqVpTu222HVkcc59-147" value="Furniture" style="shape=table;startSize=30;container=1;collapsible=0;childLayout=tableLayout;fixedRows=1;rowLines=0;fontStyle=0;strokeColor=default;fontSize=16;" vertex="1" parent="1">
          <mxGeometry x="-2150" y="-270" width="720" height="150" as="geometry" />
        </mxCell>
        <mxCell id="JaZ2fqVpTu222HVkcc59-148" value="" style="shape=tableRow;horizontal=0;startSize=0;swimlaneHead=0;swimlaneBody=0;top=0;left=0;bottom=0;right=0;collapsible=0;dropTarget=0;fillColor=none;points=[[0,0.5],[1,0.5]];portConstraint=eastwest;strokeColor=inherit;fontSize=16;" vertex="1" parent="JaZ2fqVpTu222HVkcc59-147">
          <mxGeometry y="30" width="720" height="30" as="geometry" />
        </mxCell>
        <mxCell id="JaZ2fqVpTu222HVkcc59-149" value="1" style="shape=partialRectangle;html=1;whiteSpace=wrap;connectable=0;fillColor=none;top=0;left=0;bottom=0;right=0;overflow=hidden;pointerEvents=1;strokeColor=inherit;fontSize=16;" vertex="1" parent="JaZ2fqVpTu222HVkcc59-148">
          <mxGeometry width="159" height="30" as="geometry">
            <mxRectangle width="159" height="30" as="alternateBounds" />
          </mxGeometry>
        </mxCell>
        <mxCell id="JaZ2fqVpTu222HVkcc59-150" value="FurnitureID (Pk): int identity(1, 1) not null" style="shape=partialRectangle;html=1;whiteSpace=wrap;connectable=0;fillColor=none;top=0;left=0;bottom=0;right=0;align=left;spacingLeft=6;overflow=hidden;strokeColor=inherit;fontSize=16;" vertex="1" parent="JaZ2fqVpTu222HVkcc59-148">
          <mxGeometry x="159" width="561" height="30" as="geometry">
            <mxRectangle width="561" height="30" as="alternateBounds" />
          </mxGeometry>
        </mxCell>
        <mxCell id="JaZ2fqVpTu222HVkcc59-151" value="" style="shape=tableRow;horizontal=0;startSize=0;swimlaneHead=0;swimlaneBody=0;fillColor=none;collapsible=0;dropTarget=0;points=[[0,0.5],[1,0.5]];portConstraint=eastwest;top=0;left=0;right=0;bottom=0;" vertex="1" parent="JaZ2fqVpTu222HVkcc59-147">
          <mxGeometry y="60" width="720" height="30" as="geometry" />
        </mxCell>
        <mxCell id="JaZ2fqVpTu222HVkcc59-152" value="2" style="shape=partialRectangle;connectable=0;fillColor=none;top=0;left=0;bottom=0;right=0;editable=1;overflow=hidden;fontSize=16;" vertex="1" parent="JaZ2fqVpTu222HVkcc59-151">
          <mxGeometry width="159" height="30" as="geometry">
            <mxRectangle width="159" height="30" as="alternateBounds" />
          </mxGeometry>
        </mxCell>
        <mxCell id="JaZ2fqVpTu222HVkcc59-153" value="Name: varchar(24) not null" style="shape=partialRectangle;connectable=0;fillColor=none;top=0;left=0;bottom=0;right=0;align=left;spacingLeft=6;overflow=hidden;fontSize=16;" vertex="1" parent="JaZ2fqVpTu222HVkcc59-151">
          <mxGeometry x="159" width="561" height="30" as="geometry">
            <mxRectangle width="561" height="30" as="alternateBounds" />
          </mxGeometry>
        </mxCell>
        <mxCell id="JaZ2fqVpTu222HVkcc59-154" value="" style="shape=tableRow;horizontal=0;startSize=0;swimlaneHead=0;swimlaneBody=0;top=0;left=0;bottom=0;right=0;collapsible=0;dropTarget=0;fillColor=none;points=[[0,0.5],[1,0.5]];portConstraint=eastwest;strokeColor=inherit;fontSize=16;" vertex="1" parent="JaZ2fqVpTu222HVkcc59-147">
          <mxGeometry y="90" width="720" height="30" as="geometry" />
        </mxCell>
        <mxCell id="JaZ2fqVpTu222HVkcc59-155" value="3" style="shape=partialRectangle;html=1;whiteSpace=wrap;connectable=0;fillColor=none;top=0;left=0;bottom=0;right=0;overflow=hidden;strokeColor=inherit;fontSize=16;" vertex="1" parent="JaZ2fqVpTu222HVkcc59-154">
          <mxGeometry width="159" height="30" as="geometry">
            <mxRectangle width="159" height="30" as="alternateBounds" />
          </mxGeometry>
        </mxCell>
        <mxCell id="JaZ2fqVpTu222HVkcc59-156" value="Amount: int not null" style="shape=partialRectangle;html=1;whiteSpace=wrap;connectable=0;fillColor=none;top=0;left=0;bottom=0;right=0;align=left;spacingLeft=6;overflow=hidden;strokeColor=inherit;fontSize=16;" vertex="1" parent="JaZ2fqVpTu222HVkcc59-154">
          <mxGeometry x="159" width="561" height="30" as="geometry">
            <mxRectangle width="561" height="30" as="alternateBounds" />
          </mxGeometry>
        </mxCell>
        <mxCell id="JaZ2fqVpTu222HVkcc59-157" value="" style="shape=tableRow;horizontal=0;startSize=0;swimlaneHead=0;swimlaneBody=0;fillColor=none;collapsible=0;dropTarget=0;points=[[0,0.5],[1,0.5]];portConstraint=eastwest;top=0;left=0;right=0;bottom=0;" vertex="1" parent="JaZ2fqVpTu222HVkcc59-147">
          <mxGeometry y="120" width="720" height="30" as="geometry" />
        </mxCell>
        <mxCell id="JaZ2fqVpTu222HVkcc59-158" value="4" style="shape=partialRectangle;connectable=0;fillColor=none;top=0;left=0;bottom=0;right=0;editable=1;overflow=hidden;fontSize=16;" vertex="1" parent="JaZ2fqVpTu222HVkcc59-157">
          <mxGeometry width="159" height="30" as="geometry">
            <mxRectangle width="159" height="30" as="alternateBounds" />
          </mxGeometry>
        </mxCell>
        <mxCell id="JaZ2fqVpTu222HVkcc59-159" value="FurnitureTypeID (Fk): int not null references FurnitureTypes(FurnitureTypeID)" style="shape=partialRectangle;connectable=0;fillColor=none;top=0;left=0;bottom=0;right=0;align=left;spacingLeft=6;overflow=hidden;fontSize=16;" vertex="1" parent="JaZ2fqVpTu222HVkcc59-157">
          <mxGeometry x="159" width="561" height="30" as="geometry">
            <mxRectangle width="561" height="30" as="alternateBounds" />
          </mxGeometry>
        </mxCell>
        <mxCell id="JaZ2fqVpTu222HVkcc59-160" value="Post" style="shape=table;startSize=30;container=1;collapsible=0;childLayout=tableLayout;fixedRows=1;rowLines=0;fontStyle=0;strokeColor=default;fontSize=16;" vertex="1" parent="1">
          <mxGeometry x="50" y="-270" width="370" height="90" as="geometry" />
        </mxCell>
        <mxCell id="JaZ2fqVpTu222HVkcc59-161" value="" style="shape=tableRow;horizontal=0;startSize=0;swimlaneHead=0;swimlaneBody=0;top=0;left=0;bottom=0;right=0;collapsible=0;dropTarget=0;fillColor=none;points=[[0,0.5],[1,0.5]];portConstraint=eastwest;strokeColor=inherit;fontSize=16;" vertex="1" parent="JaZ2fqVpTu222HVkcc59-160">
          <mxGeometry y="30" width="370" height="30" as="geometry" />
        </mxCell>
        <mxCell id="JaZ2fqVpTu222HVkcc59-162" value="1" style="shape=partialRectangle;html=1;whiteSpace=wrap;connectable=0;fillColor=none;top=0;left=0;bottom=0;right=0;overflow=hidden;pointerEvents=1;strokeColor=inherit;fontSize=16;" vertex="1" parent="JaZ2fqVpTu222HVkcc59-161">
          <mxGeometry width="81" height="30" as="geometry">
            <mxRectangle width="81" height="30" as="alternateBounds" />
          </mxGeometry>
        </mxCell>
        <mxCell id="JaZ2fqVpTu222HVkcc59-163" value="PostID (Pk): int identity(1, 1) not null" style="shape=partialRectangle;html=1;whiteSpace=wrap;connectable=0;fillColor=none;top=0;left=0;bottom=0;right=0;align=left;spacingLeft=6;overflow=hidden;strokeColor=inherit;fontSize=16;" vertex="1" parent="JaZ2fqVpTu222HVkcc59-161">
          <mxGeometry x="81" width="289" height="30" as="geometry">
            <mxRectangle width="289" height="30" as="alternateBounds" />
          </mxGeometry>
        </mxCell>
        <mxCell id="JaZ2fqVpTu222HVkcc59-164" value="" style="shape=tableRow;horizontal=0;startSize=0;swimlaneHead=0;swimlaneBody=0;top=0;left=0;bottom=0;right=0;collapsible=0;dropTarget=0;fillColor=none;points=[[0,0.5],[1,0.5]];portConstraint=eastwest;strokeColor=inherit;fontSize=16;" vertex="1" parent="JaZ2fqVpTu222HVkcc59-160">
          <mxGeometry y="60" width="370" height="30" as="geometry" />
        </mxCell>
        <mxCell id="JaZ2fqVpTu222HVkcc59-165" value="2" style="shape=partialRectangle;html=1;whiteSpace=wrap;connectable=0;fillColor=none;top=0;left=0;bottom=0;right=0;overflow=hidden;strokeColor=inherit;fontSize=16;" vertex="1" parent="JaZ2fqVpTu222HVkcc59-164">
          <mxGeometry width="81" height="30" as="geometry">
            <mxRectangle width="81" height="30" as="alternateBounds" />
          </mxGeometry>
        </mxCell>
        <mxCell id="JaZ2fqVpTu222HVkcc59-166" value="Name: varchar(24) not null" style="shape=partialRectangle;html=1;whiteSpace=wrap;connectable=0;fillColor=none;top=0;left=0;bottom=0;right=0;align=left;spacingLeft=6;overflow=hidden;strokeColor=inherit;fontSize=16;" vertex="1" parent="JaZ2fqVpTu222HVkcc59-164">
          <mxGeometry x="81" width="289" height="30" as="geometry">
            <mxRectangle width="289" height="30" as="alternateBounds" />
          </mxGeometry>
        </mxCell>
        <mxCell id="JaZ2fqVpTu222HVkcc59-167" value="" style="edgeStyle=entityRelationEdgeStyle;fontSize=12;html=1;endArrow=ERoneToMany;rounded=0;entryX=1;entryY=0.5;entryDx=0;entryDy=0;" edge="1" parent="1" source="JaZ2fqVpTu222HVkcc59-161" target="JaZ2fqVpTu222HVkcc59-138">
          <mxGeometry width="100" height="100" relative="1" as="geometry">
            <mxPoint x="-411.4213562373095" y="-575" as="sourcePoint" />
            <mxPoint x="-871.4213562373095" y="-205" as="targetPoint" />
          </mxGeometry>
        </mxCell>
        <mxCell id="JaZ2fqVpTu222HVkcc59-168" value="Receipts" style="shape=table;startSize=30;container=1;collapsible=0;childLayout=tableLayout;fixedRows=1;rowLines=0;fontStyle=0;strokeColor=default;fontSize=16;" vertex="1" parent="1">
          <mxGeometry x="-1350" y="-270" width="610" height="150" as="geometry" />
        </mxCell>
        <mxCell id="JaZ2fqVpTu222HVkcc59-169" value="" style="shape=tableRow;horizontal=0;startSize=0;swimlaneHead=0;swimlaneBody=0;fillColor=none;collapsible=0;dropTarget=0;points=[[0,0.5],[1,0.5]];portConstraint=eastwest;top=0;left=0;right=0;bottom=0;" vertex="1" parent="JaZ2fqVpTu222HVkcc59-168">
          <mxGeometry y="30" width="610" height="30" as="geometry" />
        </mxCell>
        <mxCell id="JaZ2fqVpTu222HVkcc59-170" value="1" style="shape=partialRectangle;connectable=0;fillColor=none;top=0;left=0;bottom=0;right=0;editable=1;overflow=hidden;fontSize=16;" vertex="1" parent="JaZ2fqVpTu222HVkcc59-169">
          <mxGeometry width="102" height="30" as="geometry">
            <mxRectangle width="102" height="30" as="alternateBounds" />
          </mxGeometry>
        </mxCell>
        <mxCell id="JaZ2fqVpTu222HVkcc59-171" value="ReceiptID (Pk): int identity(1, 1) not null" style="shape=partialRectangle;connectable=0;fillColor=none;top=0;left=0;bottom=0;right=0;align=left;spacingLeft=6;overflow=hidden;fontSize=16;" vertex="1" parent="JaZ2fqVpTu222HVkcc59-169">
          <mxGeometry x="102" width="508" height="30" as="geometry">
            <mxRectangle width="508" height="30" as="alternateBounds" />
          </mxGeometry>
        </mxCell>
        <mxCell id="JaZ2fqVpTu222HVkcc59-172" value="" style="shape=tableRow;horizontal=0;startSize=0;swimlaneHead=0;swimlaneBody=0;top=0;left=0;bottom=0;right=0;collapsible=0;dropTarget=0;fillColor=none;points=[[0,0.5],[1,0.5]];portConstraint=eastwest;strokeColor=inherit;fontSize=16;" vertex="1" parent="JaZ2fqVpTu222HVkcc59-168">
          <mxGeometry y="60" width="610" height="30" as="geometry" />
        </mxCell>
        <mxCell id="JaZ2fqVpTu222HVkcc59-173" value="2" style="shape=partialRectangle;html=1;whiteSpace=wrap;connectable=0;fillColor=none;top=0;left=0;bottom=0;right=0;overflow=hidden;pointerEvents=1;strokeColor=inherit;fontSize=16;" vertex="1" parent="JaZ2fqVpTu222HVkcc59-172">
          <mxGeometry width="102" height="30" as="geometry">
            <mxRectangle width="102" height="30" as="alternateBounds" />
          </mxGeometry>
        </mxCell>
        <mxCell id="JaZ2fqVpTu222HVkcc59-174" value="EmployeeID (Fk):&amp;nbsp;&lt;span style=&quot;&quot;&gt;int not null&lt;/span&gt;&amp;nbsp;references Staff(EmployeeID)" style="shape=partialRectangle;html=1;whiteSpace=wrap;connectable=0;fillColor=none;top=0;left=0;bottom=0;right=0;align=left;spacingLeft=6;overflow=hidden;strokeColor=inherit;fontSize=16;" vertex="1" parent="JaZ2fqVpTu222HVkcc59-172">
          <mxGeometry x="102" width="508" height="30" as="geometry">
            <mxRectangle width="508" height="30" as="alternateBounds" />
          </mxGeometry>
        </mxCell>
        <mxCell id="JaZ2fqVpTu222HVkcc59-175" value="" style="shape=tableRow;horizontal=0;startSize=0;swimlaneHead=0;swimlaneBody=0;top=0;left=0;bottom=0;right=0;collapsible=0;dropTarget=0;fillColor=none;points=[[0,0.5],[1,0.5]];portConstraint=eastwest;strokeColor=inherit;fontSize=16;" vertex="1" parent="JaZ2fqVpTu222HVkcc59-168">
          <mxGeometry y="90" width="610" height="30" as="geometry" />
        </mxCell>
        <mxCell id="JaZ2fqVpTu222HVkcc59-176" value="3" style="shape=partialRectangle;html=1;whiteSpace=wrap;connectable=0;fillColor=none;top=0;left=0;bottom=0;right=0;overflow=hidden;strokeColor=inherit;fontSize=16;" vertex="1" parent="JaZ2fqVpTu222HVkcc59-175">
          <mxGeometry width="102" height="30" as="geometry">
            <mxRectangle width="102" height="30" as="alternateBounds" />
          </mxGeometry>
        </mxCell>
        <mxCell id="JaZ2fqVpTu222HVkcc59-177" value="FurnitureID (Fk):&amp;nbsp;&lt;span style=&quot;&quot;&gt;int not null&lt;/span&gt;&amp;nbsp;references Furniture(FurnitureID)" style="shape=partialRectangle;html=1;whiteSpace=wrap;connectable=0;fillColor=none;top=0;left=0;bottom=0;right=0;align=left;spacingLeft=6;overflow=hidden;strokeColor=inherit;fontSize=16;" vertex="1" parent="JaZ2fqVpTu222HVkcc59-175">
          <mxGeometry x="102" width="508" height="30" as="geometry">
            <mxRectangle width="508" height="30" as="alternateBounds" />
          </mxGeometry>
        </mxCell>
        <mxCell id="JaZ2fqVpTu222HVkcc59-178" value="" style="shape=tableRow;horizontal=0;startSize=0;swimlaneHead=0;swimlaneBody=0;top=0;left=0;bottom=0;right=0;collapsible=0;dropTarget=0;fillColor=none;points=[[0,0.5],[1,0.5]];portConstraint=eastwest;strokeColor=inherit;fontSize=16;" vertex="1" parent="JaZ2fqVpTu222HVkcc59-168">
          <mxGeometry y="120" width="610" height="30" as="geometry" />
        </mxCell>
        <mxCell id="JaZ2fqVpTu222HVkcc59-179" value="4" style="shape=partialRectangle;html=1;whiteSpace=wrap;connectable=0;fillColor=none;top=0;left=0;bottom=0;right=0;overflow=hidden;strokeColor=inherit;fontSize=16;" vertex="1" parent="JaZ2fqVpTu222HVkcc59-178">
          <mxGeometry width="102" height="30" as="geometry">
            <mxRectangle width="102" height="30" as="alternateBounds" />
          </mxGeometry>
        </mxCell>
        <mxCell id="JaZ2fqVpTu222HVkcc59-180" value="PurchaseAmount: int&amp;nbsp;not null" style="shape=partialRectangle;html=1;whiteSpace=wrap;connectable=0;fillColor=none;top=0;left=0;bottom=0;right=0;align=left;spacingLeft=6;overflow=hidden;strokeColor=inherit;fontSize=16;" vertex="1" parent="JaZ2fqVpTu222HVkcc59-178">
          <mxGeometry x="102" width="508" height="30" as="geometry">
            <mxRectangle width="508" height="30" as="alternateBounds" />
          </mxGeometry>
        </mxCell>
        <mxCell id="JaZ2fqVpTu222HVkcc59-181" value="Factories" style="shape=table;startSize=30;container=1;collapsible=0;childLayout=tableLayout;fixedRows=1;rowLines=0;fontStyle=0;strokeColor=default;fontSize=16;" vertex="1" parent="1">
          <mxGeometry x="-1560" y="-90" width="840" height="150" as="geometry" />
        </mxCell>
        <mxCell id="JaZ2fqVpTu222HVkcc59-182" value="" style="shape=tableRow;horizontal=0;startSize=0;swimlaneHead=0;swimlaneBody=0;top=0;left=0;bottom=0;right=0;collapsible=0;dropTarget=0;fillColor=none;points=[[0,0.5],[1,0.5]];portConstraint=eastwest;strokeColor=inherit;fontSize=16;" vertex="1" parent="JaZ2fqVpTu222HVkcc59-181">
          <mxGeometry y="30" width="840" height="30" as="geometry" />
        </mxCell>
        <mxCell id="JaZ2fqVpTu222HVkcc59-183" value="1" style="shape=partialRectangle;html=1;whiteSpace=wrap;connectable=0;fillColor=none;top=0;left=0;bottom=0;right=0;overflow=hidden;pointerEvents=1;strokeColor=inherit;fontSize=16;" vertex="1" parent="JaZ2fqVpTu222HVkcc59-182">
          <mxGeometry width="181" height="30" as="geometry">
            <mxRectangle width="181" height="30" as="alternateBounds" />
          </mxGeometry>
        </mxCell>
        <mxCell id="JaZ2fqVpTu222HVkcc59-184" value="FactoryID (Pk): int identity(1, 1) not null" style="shape=partialRectangle;html=1;whiteSpace=wrap;connectable=0;fillColor=none;top=0;left=0;bottom=0;right=0;align=left;spacingLeft=6;overflow=hidden;strokeColor=inherit;fontSize=16;" vertex="1" parent="JaZ2fqVpTu222HVkcc59-182">
          <mxGeometry x="181" width="659" height="30" as="geometry">
            <mxRectangle width="659" height="30" as="alternateBounds" />
          </mxGeometry>
        </mxCell>
        <mxCell id="JaZ2fqVpTu222HVkcc59-185" value="" style="shape=tableRow;horizontal=0;startSize=0;swimlaneHead=0;swimlaneBody=0;top=0;left=0;bottom=0;right=0;collapsible=0;dropTarget=0;fillColor=none;points=[[0,0.5],[1,0.5]];portConstraint=eastwest;strokeColor=inherit;fontSize=16;" vertex="1" parent="JaZ2fqVpTu222HVkcc59-181">
          <mxGeometry y="60" width="840" height="30" as="geometry" />
        </mxCell>
        <mxCell id="JaZ2fqVpTu222HVkcc59-186" value="2" style="shape=partialRectangle;html=1;whiteSpace=wrap;connectable=0;fillColor=none;top=0;left=0;bottom=0;right=0;overflow=hidden;strokeColor=inherit;fontSize=16;" vertex="1" parent="JaZ2fqVpTu222HVkcc59-185">
          <mxGeometry width="181" height="30" as="geometry">
            <mxRectangle width="181" height="30" as="alternateBounds" />
          </mxGeometry>
        </mxCell>
        <mxCell id="JaZ2fqVpTu222HVkcc59-187" value="Address: varchar(48)&amp;nbsp;not null" style="shape=partialRectangle;html=1;whiteSpace=wrap;connectable=0;fillColor=none;top=0;left=0;bottom=0;right=0;align=left;spacingLeft=6;overflow=hidden;strokeColor=inherit;fontSize=16;" vertex="1" parent="JaZ2fqVpTu222HVkcc59-185">
          <mxGeometry x="181" width="659" height="30" as="geometry">
            <mxRectangle width="659" height="30" as="alternateBounds" />
          </mxGeometry>
        </mxCell>
        <mxCell id="JaZ2fqVpTu222HVkcc59-188" value="" style="shape=tableRow;horizontal=0;startSize=0;swimlaneHead=0;swimlaneBody=0;fillColor=none;collapsible=0;dropTarget=0;points=[[0,0.5],[1,0.5]];portConstraint=eastwest;top=0;left=0;right=0;bottom=0;" vertex="1" parent="JaZ2fqVpTu222HVkcc59-181">
          <mxGeometry y="90" width="840" height="30" as="geometry" />
        </mxCell>
        <mxCell id="JaZ2fqVpTu222HVkcc59-189" value="3" style="shape=partialRectangle;connectable=0;fillColor=none;top=0;left=0;bottom=0;right=0;editable=1;overflow=hidden;fontSize=16;" vertex="1" parent="JaZ2fqVpTu222HVkcc59-188">
          <mxGeometry width="181" height="30" as="geometry">
            <mxRectangle width="181" height="30" as="alternateBounds" />
          </mxGeometry>
        </mxCell>
        <mxCell id="JaZ2fqVpTu222HVkcc59-190" value="MatSupplierID (Fk): int not null references MaterialsSuppliers(MatSupplierID)" style="shape=partialRectangle;connectable=0;fillColor=none;top=0;left=0;bottom=0;right=0;align=left;spacingLeft=6;overflow=hidden;fontSize=16;" vertex="1" parent="JaZ2fqVpTu222HVkcc59-188">
          <mxGeometry x="181" width="659" height="30" as="geometry">
            <mxRectangle width="659" height="30" as="alternateBounds" />
          </mxGeometry>
        </mxCell>
        <mxCell id="JaZ2fqVpTu222HVkcc59-191" value="" style="shape=tableRow;horizontal=0;startSize=0;swimlaneHead=0;swimlaneBody=0;fillColor=none;collapsible=0;dropTarget=0;points=[[0,0.5],[1,0.5]];portConstraint=eastwest;top=0;left=0;right=0;bottom=0;" vertex="1" parent="JaZ2fqVpTu222HVkcc59-181">
          <mxGeometry y="120" width="840" height="30" as="geometry" />
        </mxCell>
        <mxCell id="JaZ2fqVpTu222HVkcc59-192" value="4" style="shape=partialRectangle;connectable=0;fillColor=none;top=0;left=0;bottom=0;right=0;editable=1;overflow=hidden;fontSize=16;" vertex="1" parent="JaZ2fqVpTu222HVkcc59-191">
          <mxGeometry width="181" height="30" as="geometry">
            <mxRectangle width="181" height="30" as="alternateBounds" />
          </mxGeometry>
        </mxCell>
        <mxCell id="JaZ2fqVpTu222HVkcc59-193" value="FurnitureCarrierID (Fk): int not null references FurnitureCarriers(FurnitureCarrierID)" style="shape=partialRectangle;connectable=0;fillColor=none;top=0;left=0;bottom=0;right=0;align=left;spacingLeft=6;overflow=hidden;fontSize=16;" vertex="1" parent="JaZ2fqVpTu222HVkcc59-191">
          <mxGeometry x="181" width="659" height="30" as="geometry">
            <mxRectangle width="659" height="30" as="alternateBounds" />
          </mxGeometry>
        </mxCell>
        <mxCell id="JaZ2fqVpTu222HVkcc59-194" value="" style="edgeStyle=entityRelationEdgeStyle;fontSize=12;html=1;endArrow=ERoneToMany;rounded=0;exitX=1;exitY=0.5;exitDx=0;exitDy=0;entryX=0;entryY=0.5;entryDx=0;entryDy=0;" edge="1" parent="1" source="JaZ2fqVpTu222HVkcc59-182" target="JaZ2fqVpTu222HVkcc59-141">
          <mxGeometry width="100" height="100" relative="1" as="geometry">
            <mxPoint x="-840" y="50" as="sourcePoint" />
            <mxPoint x="-740" y="-50" as="targetPoint" />
          </mxGeometry>
        </mxCell>
        <mxCell id="JaZ2fqVpTu222HVkcc59-195" value="" style="edgeStyle=entityRelationEdgeStyle;fontSize=12;html=1;endArrow=ERoneToMany;rounded=0;exitX=0;exitY=0.5;exitDx=0;exitDy=0;entryX=1;entryY=0.5;entryDx=0;entryDy=0;" edge="1" parent="1" source="JaZ2fqVpTu222HVkcc59-123" target="JaZ2fqVpTu222HVkcc59-172">
          <mxGeometry width="100" height="100" relative="1" as="geometry">
            <mxPoint x="-790" y="-110" as="sourcePoint" />
            <mxPoint x="-690" y="-210" as="targetPoint" />
          </mxGeometry>
        </mxCell>
        <mxCell id="JaZ2fqVpTu222HVkcc59-196" value="MaterialsSuppliers" style="shape=table;startSize=30;container=1;collapsible=0;childLayout=tableLayout;fixedRows=1;rowLines=0;fontStyle=0;strokeColor=default;fontSize=16;" vertex="1" parent="1">
          <mxGeometry x="-2130" y="-90" width="490" height="90" as="geometry" />
        </mxCell>
        <mxCell id="JaZ2fqVpTu222HVkcc59-197" value="" style="shape=tableRow;horizontal=0;startSize=0;swimlaneHead=0;swimlaneBody=0;top=0;left=0;bottom=0;right=0;collapsible=0;dropTarget=0;fillColor=none;points=[[0,0.5],[1,0.5]];portConstraint=eastwest;strokeColor=inherit;fontSize=16;" vertex="1" parent="JaZ2fqVpTu222HVkcc59-196">
          <mxGeometry y="30" width="490" height="30" as="geometry" />
        </mxCell>
        <mxCell id="JaZ2fqVpTu222HVkcc59-198" value="1" style="shape=partialRectangle;html=1;whiteSpace=wrap;connectable=0;fillColor=none;top=0;left=0;bottom=0;right=0;overflow=hidden;pointerEvents=1;strokeColor=inherit;fontSize=16;" vertex="1" parent="JaZ2fqVpTu222HVkcc59-197">
          <mxGeometry width="110" height="30" as="geometry">
            <mxRectangle width="110" height="30" as="alternateBounds" />
          </mxGeometry>
        </mxCell>
        <mxCell id="JaZ2fqVpTu222HVkcc59-199" value="MatSupplierID (Pk): int identity(1, 1) not null" style="shape=partialRectangle;html=1;whiteSpace=wrap;connectable=0;fillColor=none;top=0;left=0;bottom=0;right=0;align=left;spacingLeft=6;overflow=hidden;strokeColor=inherit;fontSize=16;" vertex="1" parent="JaZ2fqVpTu222HVkcc59-197">
          <mxGeometry x="110" width="380" height="30" as="geometry">
            <mxRectangle width="380" height="30" as="alternateBounds" />
          </mxGeometry>
        </mxCell>
        <mxCell id="JaZ2fqVpTu222HVkcc59-200" value="" style="shape=tableRow;horizontal=0;startSize=0;swimlaneHead=0;swimlaneBody=0;top=0;left=0;bottom=0;right=0;collapsible=0;dropTarget=0;fillColor=none;points=[[0,0.5],[1,0.5]];portConstraint=eastwest;strokeColor=inherit;fontSize=16;" vertex="1" parent="JaZ2fqVpTu222HVkcc59-196">
          <mxGeometry y="60" width="490" height="30" as="geometry" />
        </mxCell>
        <mxCell id="JaZ2fqVpTu222HVkcc59-201" value="2" style="shape=partialRectangle;html=1;whiteSpace=wrap;connectable=0;fillColor=none;top=0;left=0;bottom=0;right=0;overflow=hidden;strokeColor=inherit;fontSize=16;" vertex="1" parent="JaZ2fqVpTu222HVkcc59-200">
          <mxGeometry width="110" height="30" as="geometry">
            <mxRectangle width="110" height="30" as="alternateBounds" />
          </mxGeometry>
        </mxCell>
        <mxCell id="JaZ2fqVpTu222HVkcc59-202" value="Name: varchar(24)&amp;nbsp;not null" style="shape=partialRectangle;html=1;whiteSpace=wrap;connectable=0;fillColor=none;top=0;left=0;bottom=0;right=0;align=left;spacingLeft=6;overflow=hidden;strokeColor=inherit;fontSize=16;" vertex="1" parent="JaZ2fqVpTu222HVkcc59-200">
          <mxGeometry x="110" width="380" height="30" as="geometry">
            <mxRectangle width="380" height="30" as="alternateBounds" />
          </mxGeometry>
        </mxCell>
        <mxCell id="JaZ2fqVpTu222HVkcc59-203" value="" style="edgeStyle=entityRelationEdgeStyle;fontSize=12;html=1;endArrow=ERmandOne;startArrow=ERmandOne;rounded=0;exitX=1;exitY=0.5;exitDx=0;exitDy=0;entryX=0;entryY=0.5;entryDx=0;entryDy=0;" edge="1" parent="1" source="JaZ2fqVpTu222HVkcc59-197" target="JaZ2fqVpTu222HVkcc59-188">
          <mxGeometry width="100" height="100" relative="1" as="geometry">
            <mxPoint x="-1230" y="140" as="sourcePoint" />
            <mxPoint x="-1130" y="40" as="targetPoint" />
          </mxGeometry>
        </mxCell>
        <mxCell id="JaZ2fqVpTu222HVkcc59-204" value="Machines" style="shape=table;startSize=30;container=1;collapsible=0;childLayout=tableLayout;fixedRows=1;rowLines=0;fontStyle=0;strokeColor=default;fontSize=16;" vertex="1" parent="1">
          <mxGeometry x="50" y="-30" width="640" height="120" as="geometry" />
        </mxCell>
        <mxCell id="JaZ2fqVpTu222HVkcc59-205" value="" style="shape=tableRow;horizontal=0;startSize=0;swimlaneHead=0;swimlaneBody=0;top=0;left=0;bottom=0;right=0;collapsible=0;dropTarget=0;fillColor=none;points=[[0,0.5],[1,0.5]];portConstraint=eastwest;strokeColor=inherit;fontSize=16;" vertex="1" parent="JaZ2fqVpTu222HVkcc59-204">
          <mxGeometry y="30" width="640" height="30" as="geometry" />
        </mxCell>
        <mxCell id="JaZ2fqVpTu222HVkcc59-206" value="1" style="shape=partialRectangle;html=1;whiteSpace=wrap;connectable=0;fillColor=none;top=0;left=0;bottom=0;right=0;overflow=hidden;pointerEvents=1;strokeColor=inherit;fontSize=16;" vertex="1" parent="JaZ2fqVpTu222HVkcc59-205">
          <mxGeometry width="143" height="30" as="geometry">
            <mxRectangle width="143" height="30" as="alternateBounds" />
          </mxGeometry>
        </mxCell>
        <mxCell id="JaZ2fqVpTu222HVkcc59-207" value="MachineID (Pk): int identity(1, 1) not null" style="shape=partialRectangle;html=1;whiteSpace=wrap;connectable=0;fillColor=none;top=0;left=0;bottom=0;right=0;align=left;spacingLeft=6;overflow=hidden;strokeColor=inherit;fontSize=16;" vertex="1" parent="JaZ2fqVpTu222HVkcc59-205">
          <mxGeometry x="143" width="497" height="30" as="geometry">
            <mxRectangle width="497" height="30" as="alternateBounds" />
          </mxGeometry>
        </mxCell>
        <mxCell id="JaZ2fqVpTu222HVkcc59-208" value="" style="shape=tableRow;horizontal=0;startSize=0;swimlaneHead=0;swimlaneBody=0;top=0;left=0;bottom=0;right=0;collapsible=0;dropTarget=0;fillColor=none;points=[[0,0.5],[1,0.5]];portConstraint=eastwest;strokeColor=inherit;fontSize=16;" vertex="1" parent="JaZ2fqVpTu222HVkcc59-204">
          <mxGeometry y="60" width="640" height="30" as="geometry" />
        </mxCell>
        <mxCell id="JaZ2fqVpTu222HVkcc59-209" value="2" style="shape=partialRectangle;html=1;whiteSpace=wrap;connectable=0;fillColor=none;top=0;left=0;bottom=0;right=0;overflow=hidden;strokeColor=inherit;fontSize=16;" vertex="1" parent="JaZ2fqVpTu222HVkcc59-208">
          <mxGeometry width="143" height="30" as="geometry">
            <mxRectangle width="143" height="30" as="alternateBounds" />
          </mxGeometry>
        </mxCell>
        <mxCell id="JaZ2fqVpTu222HVkcc59-210" value="Name: varchar(24) not null" style="shape=partialRectangle;html=1;whiteSpace=wrap;connectable=0;fillColor=none;top=0;left=0;bottom=0;right=0;align=left;spacingLeft=6;overflow=hidden;strokeColor=inherit;fontSize=16;" vertex="1" parent="JaZ2fqVpTu222HVkcc59-208">
          <mxGeometry x="143" width="497" height="30" as="geometry">
            <mxRectangle width="497" height="30" as="alternateBounds" />
          </mxGeometry>
        </mxCell>
        <mxCell id="JaZ2fqVpTu222HVkcc59-211" value="" style="shape=tableRow;horizontal=0;startSize=0;swimlaneHead=0;swimlaneBody=0;fillColor=none;collapsible=0;dropTarget=0;points=[[0,0.5],[1,0.5]];portConstraint=eastwest;top=0;left=0;right=0;bottom=0;" vertex="1" parent="JaZ2fqVpTu222HVkcc59-204">
          <mxGeometry y="90" width="640" height="30" as="geometry" />
        </mxCell>
        <mxCell id="JaZ2fqVpTu222HVkcc59-212" value="3" style="shape=partialRectangle;connectable=0;fillColor=none;top=0;left=0;bottom=0;right=0;editable=1;overflow=hidden;fontSize=16;" vertex="1" parent="JaZ2fqVpTu222HVkcc59-211">
          <mxGeometry width="143" height="30" as="geometry">
            <mxRectangle width="143" height="30" as="alternateBounds" />
          </mxGeometry>
        </mxCell>
        <mxCell id="JaZ2fqVpTu222HVkcc59-213" value="MaterialID (Fk): int not null references Materials(MaterialID)" style="shape=partialRectangle;connectable=0;fillColor=none;top=0;left=0;bottom=0;right=0;align=left;spacingLeft=6;overflow=hidden;fontSize=16;" vertex="1" parent="JaZ2fqVpTu222HVkcc59-211">
          <mxGeometry x="143" width="497" height="30" as="geometry">
            <mxRectangle width="497" height="30" as="alternateBounds" />
          </mxGeometry>
        </mxCell>
        <mxCell id="JaZ2fqVpTu222HVkcc59-214" value="" style="edgeStyle=entityRelationEdgeStyle;fontSize=12;html=1;endArrow=ERmandOne;startArrow=ERmandOne;rounded=0;entryX=0;entryY=0.5;entryDx=0;entryDy=0;exitX=1;exitY=0.5;exitDx=0;exitDy=0;" edge="1" parent="1" source="JaZ2fqVpTu222HVkcc59-144" target="JaZ2fqVpTu222HVkcc59-205">
          <mxGeometry width="100" height="100" relative="1" as="geometry">
            <mxPoint x="-440" y="190" as="sourcePoint" />
            <mxPoint x="-340" y="90" as="targetPoint" />
          </mxGeometry>
        </mxCell>
        <mxCell id="JaZ2fqVpTu222HVkcc59-215" value="FurnitureCarriers" style="shape=table;startSize=30;container=1;collapsible=0;childLayout=tableLayout;fixedRows=1;rowLines=0;fontStyle=0;strokeColor=default;fontSize=16;" vertex="1" parent="1">
          <mxGeometry x="-2130" y="60" width="490" height="90" as="geometry" />
        </mxCell>
        <mxCell id="JaZ2fqVpTu222HVkcc59-216" value="" style="shape=tableRow;horizontal=0;startSize=0;swimlaneHead=0;swimlaneBody=0;top=0;left=0;bottom=0;right=0;collapsible=0;dropTarget=0;fillColor=none;points=[[0,0.5],[1,0.5]];portConstraint=eastwest;strokeColor=inherit;fontSize=16;" vertex="1" parent="JaZ2fqVpTu222HVkcc59-215">
          <mxGeometry y="30" width="490" height="30" as="geometry" />
        </mxCell>
        <mxCell id="JaZ2fqVpTu222HVkcc59-217" value="1" style="shape=partialRectangle;html=1;whiteSpace=wrap;connectable=0;fillColor=none;top=0;left=0;bottom=0;right=0;overflow=hidden;pointerEvents=1;strokeColor=inherit;fontSize=16;" vertex="1" parent="JaZ2fqVpTu222HVkcc59-216">
          <mxGeometry width="107" height="30" as="geometry">
            <mxRectangle width="107" height="30" as="alternateBounds" />
          </mxGeometry>
        </mxCell>
        <mxCell id="JaZ2fqVpTu222HVkcc59-218" value="FurnitureCarrierID (Pk): int identity(1, 1) not null" style="shape=partialRectangle;html=1;whiteSpace=wrap;connectable=0;fillColor=none;top=0;left=0;bottom=0;right=0;align=left;spacingLeft=6;overflow=hidden;strokeColor=inherit;fontSize=16;" vertex="1" parent="JaZ2fqVpTu222HVkcc59-216">
          <mxGeometry x="107" width="383" height="30" as="geometry">
            <mxRectangle width="383" height="30" as="alternateBounds" />
          </mxGeometry>
        </mxCell>
        <mxCell id="JaZ2fqVpTu222HVkcc59-219" value="" style="shape=tableRow;horizontal=0;startSize=0;swimlaneHead=0;swimlaneBody=0;top=0;left=0;bottom=0;right=0;collapsible=0;dropTarget=0;fillColor=none;points=[[0,0.5],[1,0.5]];portConstraint=eastwest;strokeColor=inherit;fontSize=16;" vertex="1" parent="JaZ2fqVpTu222HVkcc59-215">
          <mxGeometry y="60" width="490" height="30" as="geometry" />
        </mxCell>
        <mxCell id="JaZ2fqVpTu222HVkcc59-220" value="2" style="shape=partialRectangle;html=1;whiteSpace=wrap;connectable=0;fillColor=none;top=0;left=0;bottom=0;right=0;overflow=hidden;strokeColor=inherit;fontSize=16;" vertex="1" parent="JaZ2fqVpTu222HVkcc59-219">
          <mxGeometry width="107" height="30" as="geometry">
            <mxRectangle width="107" height="30" as="alternateBounds" />
          </mxGeometry>
        </mxCell>
        <mxCell id="JaZ2fqVpTu222HVkcc59-221" value="Name: varchar(24)&amp;nbsp;not null" style="shape=partialRectangle;html=1;whiteSpace=wrap;connectable=0;fillColor=none;top=0;left=0;bottom=0;right=0;align=left;spacingLeft=6;overflow=hidden;strokeColor=inherit;fontSize=16;" vertex="1" parent="JaZ2fqVpTu222HVkcc59-219">
          <mxGeometry x="107" width="383" height="30" as="geometry">
            <mxRectangle width="383" height="30" as="alternateBounds" />
          </mxGeometry>
        </mxCell>
        <mxCell id="JaZ2fqVpTu222HVkcc59-222" value="" style="edgeStyle=entityRelationEdgeStyle;fontSize=12;html=1;endArrow=ERmandOne;startArrow=ERmandOne;rounded=0;exitX=1;exitY=0.5;exitDx=0;exitDy=0;entryX=0;entryY=0.5;entryDx=0;entryDy=0;" edge="1" parent="1" source="JaZ2fqVpTu222HVkcc59-216" target="JaZ2fqVpTu222HVkcc59-191">
          <mxGeometry width="100" height="100" relative="1" as="geometry">
            <mxPoint x="-1220" y="260" as="sourcePoint" />
            <mxPoint x="-1120" y="160" as="targetPoint" />
          </mxGeometry>
        </mxCell>
        <mxCell id="JaZ2fqVpTu222HVkcc59-223" value="" style="edgeStyle=entityRelationEdgeStyle;fontSize=12;html=1;endArrow=ERoneToMany;rounded=0;exitX=1;exitY=0.5;exitDx=0;exitDy=0;entryX=0;entryY=0.5;entryDx=0;entryDy=0;" edge="1" parent="1" source="JaZ2fqVpTu222HVkcc59-148" target="JaZ2fqVpTu222HVkcc59-175">
          <mxGeometry width="100" height="100" relative="1" as="geometry">
            <mxPoint x="-1300" y="290" as="sourcePoint" />
            <mxPoint x="-1200" y="190" as="targetPoint" />
          </mxGeometry>
        </mxCell>
        <mxCell id="JaZ2fqVpTu222HVkcc59-224" value="Materials" style="shape=table;startSize=30;container=1;collapsible=0;childLayout=tableLayout;fixedRows=1;rowLines=0;fontStyle=0;strokeColor=default;fontSize=16;" vertex="1" parent="1">
          <mxGeometry x="850" y="-30" width="410" height="120" as="geometry" />
        </mxCell>
        <mxCell id="JaZ2fqVpTu222HVkcc59-225" value="" style="shape=tableRow;horizontal=0;startSize=0;swimlaneHead=0;swimlaneBody=0;top=0;left=0;bottom=0;right=0;collapsible=0;dropTarget=0;fillColor=none;points=[[0,0.5],[1,0.5]];portConstraint=eastwest;strokeColor=inherit;fontSize=16;" vertex="1" parent="JaZ2fqVpTu222HVkcc59-224">
          <mxGeometry y="30" width="410" height="30" as="geometry" />
        </mxCell>
        <mxCell id="JaZ2fqVpTu222HVkcc59-226" value="1" style="shape=partialRectangle;html=1;whiteSpace=wrap;connectable=0;fillColor=none;top=0;left=0;bottom=0;right=0;overflow=hidden;pointerEvents=1;strokeColor=inherit;fontSize=16;" vertex="1" parent="JaZ2fqVpTu222HVkcc59-225">
          <mxGeometry width="92" height="30" as="geometry">
            <mxRectangle width="92" height="30" as="alternateBounds" />
          </mxGeometry>
        </mxCell>
        <mxCell id="JaZ2fqVpTu222HVkcc59-227" value="MaterialID (Pk): int identity(1, 1) not null" style="shape=partialRectangle;html=1;whiteSpace=wrap;connectable=0;fillColor=none;top=0;left=0;bottom=0;right=0;align=left;spacingLeft=6;overflow=hidden;strokeColor=inherit;fontSize=16;" vertex="1" parent="JaZ2fqVpTu222HVkcc59-225">
          <mxGeometry x="92" width="318" height="30" as="geometry">
            <mxRectangle width="318" height="30" as="alternateBounds" />
          </mxGeometry>
        </mxCell>
        <mxCell id="JaZ2fqVpTu222HVkcc59-228" value="" style="shape=tableRow;horizontal=0;startSize=0;swimlaneHead=0;swimlaneBody=0;top=0;left=0;bottom=0;right=0;collapsible=0;dropTarget=0;fillColor=none;points=[[0,0.5],[1,0.5]];portConstraint=eastwest;strokeColor=inherit;fontSize=16;" vertex="1" parent="JaZ2fqVpTu222HVkcc59-224">
          <mxGeometry y="60" width="410" height="30" as="geometry" />
        </mxCell>
        <mxCell id="JaZ2fqVpTu222HVkcc59-229" value="2" style="shape=partialRectangle;html=1;whiteSpace=wrap;connectable=0;fillColor=none;top=0;left=0;bottom=0;right=0;overflow=hidden;strokeColor=inherit;fontSize=16;" vertex="1" parent="JaZ2fqVpTu222HVkcc59-228">
          <mxGeometry width="92" height="30" as="geometry">
            <mxRectangle width="92" height="30" as="alternateBounds" />
          </mxGeometry>
        </mxCell>
        <mxCell id="JaZ2fqVpTu222HVkcc59-230" value="Name: varchar(24) not null" style="shape=partialRectangle;html=1;whiteSpace=wrap;connectable=0;fillColor=none;top=0;left=0;bottom=0;right=0;align=left;spacingLeft=6;overflow=hidden;strokeColor=inherit;fontSize=16;" vertex="1" parent="JaZ2fqVpTu222HVkcc59-228">
          <mxGeometry x="92" width="318" height="30" as="geometry">
            <mxRectangle width="318" height="30" as="alternateBounds" />
          </mxGeometry>
        </mxCell>
        <mxCell id="JaZ2fqVpTu222HVkcc59-231" value="" style="shape=tableRow;horizontal=0;startSize=0;swimlaneHead=0;swimlaneBody=0;top=0;left=0;bottom=0;right=0;collapsible=0;dropTarget=0;fillColor=none;points=[[0,0.5],[1,0.5]];portConstraint=eastwest;strokeColor=inherit;fontSize=16;" vertex="1" parent="JaZ2fqVpTu222HVkcc59-224">
          <mxGeometry y="90" width="410" height="30" as="geometry" />
        </mxCell>
        <mxCell id="JaZ2fqVpTu222HVkcc59-232" value="3" style="shape=partialRectangle;html=1;whiteSpace=wrap;connectable=0;fillColor=none;top=0;left=0;bottom=0;right=0;overflow=hidden;strokeColor=inherit;fontSize=16;" vertex="1" parent="JaZ2fqVpTu222HVkcc59-231">
          <mxGeometry width="92" height="30" as="geometry">
            <mxRectangle width="92" height="30" as="alternateBounds" />
          </mxGeometry>
        </mxCell>
        <mxCell id="JaZ2fqVpTu222HVkcc59-233" value="Amount: int not null" style="shape=partialRectangle;html=1;whiteSpace=wrap;connectable=0;fillColor=none;top=0;left=0;bottom=0;right=0;align=left;spacingLeft=6;overflow=hidden;strokeColor=inherit;fontSize=16;" vertex="1" parent="JaZ2fqVpTu222HVkcc59-231">
          <mxGeometry x="92" width="318" height="30" as="geometry">
            <mxRectangle width="318" height="30" as="alternateBounds" />
          </mxGeometry>
        </mxCell>
        <mxCell id="JaZ2fqVpTu222HVkcc59-234" value="" style="edgeStyle=entityRelationEdgeStyle;fontSize=12;html=1;endArrow=ERoneToMany;rounded=0;exitX=0;exitY=0.5;exitDx=0;exitDy=0;entryX=1;entryY=0.5;entryDx=0;entryDy=0;" edge="1" parent="1" source="JaZ2fqVpTu222HVkcc59-225" target="JaZ2fqVpTu222HVkcc59-211">
          <mxGeometry width="100" height="100" relative="1" as="geometry">
            <mxPoint x="-180" y="190" as="sourcePoint" />
            <mxPoint x="-80" y="90" as="targetPoint" />
          </mxGeometry>
        </mxCell>
        <mxCell id="JaZ2fqVpTu222HVkcc59-235" value="FurnitureTypes" style="shape=table;startSize=30;container=1;collapsible=0;childLayout=tableLayout;fixedRows=1;rowLines=0;fontStyle=0;strokeColor=default;fontSize=16;" vertex="1" parent="1">
          <mxGeometry x="-2670" y="-270" width="440" height="90" as="geometry" />
        </mxCell>
        <mxCell id="JaZ2fqVpTu222HVkcc59-236" value="" style="shape=tableRow;horizontal=0;startSize=0;swimlaneHead=0;swimlaneBody=0;top=0;left=0;bottom=0;right=0;collapsible=0;dropTarget=0;fillColor=none;points=[[0,0.5],[1,0.5]];portConstraint=eastwest;strokeColor=inherit;fontSize=16;" vertex="1" parent="JaZ2fqVpTu222HVkcc59-235">
          <mxGeometry y="30" width="440" height="30" as="geometry" />
        </mxCell>
        <mxCell id="JaZ2fqVpTu222HVkcc59-237" value="1" style="shape=partialRectangle;html=1;whiteSpace=wrap;connectable=0;fillColor=none;top=0;left=0;bottom=0;right=0;overflow=hidden;pointerEvents=1;strokeColor=inherit;fontSize=16;" vertex="1" parent="JaZ2fqVpTu222HVkcc59-236">
          <mxGeometry width="98" height="30" as="geometry">
            <mxRectangle width="98" height="30" as="alternateBounds" />
          </mxGeometry>
        </mxCell>
        <mxCell id="JaZ2fqVpTu222HVkcc59-238" value="FurnitureTypeID (Pk): int identity(1, 1) not null" style="shape=partialRectangle;html=1;whiteSpace=wrap;connectable=0;fillColor=none;top=0;left=0;bottom=0;right=0;align=left;spacingLeft=6;overflow=hidden;strokeColor=inherit;fontSize=16;" vertex="1" parent="JaZ2fqVpTu222HVkcc59-236">
          <mxGeometry x="98" width="342" height="30" as="geometry">
            <mxRectangle width="342" height="30" as="alternateBounds" />
          </mxGeometry>
        </mxCell>
        <mxCell id="JaZ2fqVpTu222HVkcc59-239" value="" style="shape=tableRow;horizontal=0;startSize=0;swimlaneHead=0;swimlaneBody=0;top=0;left=0;bottom=0;right=0;collapsible=0;dropTarget=0;fillColor=none;points=[[0,0.5],[1,0.5]];portConstraint=eastwest;strokeColor=inherit;fontSize=16;" vertex="1" parent="JaZ2fqVpTu222HVkcc59-235">
          <mxGeometry y="60" width="440" height="30" as="geometry" />
        </mxCell>
        <mxCell id="JaZ2fqVpTu222HVkcc59-240" value="2" style="shape=partialRectangle;html=1;whiteSpace=wrap;connectable=0;fillColor=none;top=0;left=0;bottom=0;right=0;overflow=hidden;strokeColor=inherit;fontSize=16;" vertex="1" parent="JaZ2fqVpTu222HVkcc59-239">
          <mxGeometry width="98" height="30" as="geometry">
            <mxRectangle width="98" height="30" as="alternateBounds" />
          </mxGeometry>
        </mxCell>
        <mxCell id="JaZ2fqVpTu222HVkcc59-241" value="Name: varchar(24)&amp;nbsp;not null" style="shape=partialRectangle;html=1;whiteSpace=wrap;connectable=0;fillColor=none;top=0;left=0;bottom=0;right=0;align=left;spacingLeft=6;overflow=hidden;strokeColor=inherit;fontSize=16;" vertex="1" parent="JaZ2fqVpTu222HVkcc59-239">
          <mxGeometry x="98" width="342" height="30" as="geometry">
            <mxRectangle width="342" height="30" as="alternateBounds" />
          </mxGeometry>
        </mxCell>
        <mxCell id="JaZ2fqVpTu222HVkcc59-242" value="" style="edgeStyle=entityRelationEdgeStyle;fontSize=12;html=1;endArrow=ERoneToMany;rounded=0;exitX=1;exitY=0.5;exitDx=0;exitDy=0;entryX=0;entryY=0.5;entryDx=0;entryDy=0;" edge="1" parent="1" source="JaZ2fqVpTu222HVkcc59-236" target="JaZ2fqVpTu222HVkcc59-157">
          <mxGeometry width="100" height="100" relative="1" as="geometry">
            <mxPoint x="-1730" y="10" as="sourcePoint" />
            <mxPoint x="-1630" y="-90" as="targetPoint" />
          </mxGeometry>
        </mxCell>
      </root>
    </mxGraphModel>
  </diagram>
</mxfile>
